<svg xmlns="http://www.w3.org/2000/svg" viewBox="0 0 64 64" fill="none">
  <defs>
    <linearGradient id="sunGrad" x1="0%" y1="0%" x2="100%" y2="100%">
      <stop offset="0%" stop-color="#FDE047" />
      <stop offset="100%" stop-color="#F59E0B" />
    </linearGradient>
    <linearGradient id="cloudGrad" x1="0%" y1="0%" x2="100%" y2="100%">
      <stop offset="0%" stop-color="#38BDF8" />
      <stop offset="100%" stop-color="#0284C7" />
    </linearGradient>
    <linearGradient id="glowGrad" x1="0%" y1="0%" x2="100%" y2="100%">
      <stop offset="0%" stop-color="#818CF8" />
      <stop offset="100%" stop-color="#6366F1" />
    </linearGradient>
    <filter id="glow" x="-20%" y="-20%" width="140%" height="140%">
      <feGaussianBlur stdDeviation="2" result="blur" />
      <feComposite in="SourceGraphic" in2="blur" operator="over" />
    </filter>
  </defs>
  <!-- Background Circle Badge -->
  <rect width="64" height="64" rx="16" fill="#132238" />
  <rect x="1" y="1" width="62" height="62" rx="15" fill="none" stroke="rgba(148, 163, 184, 0.25)" stroke-width="1.5" />
  
  <!-- Glowing Sun -->
  <circle cx="40" cy="24" r="11" fill="url(#sunGrad)" filter="url(#glow)" />
  <path d="M40 8V11 M40 37V40 M24 24H27 M53 24H56 M29 13L31 15 M49 33L51 35 M29 35L31 33 M49 13L51 15" stroke="#FDE047" stroke-width="2" stroke-linecap="round" opacity="0.75" />

  <!-- Cloud -->
  <path d="M20 48H44C48.4 48 52 44.4 52 40C52 35.8 48.8 32.4 44.6 32.1C43.8 25.6 38.3 20.6 31.6 20.6C26.1 20.6 21.4 24.1 19.8 29.1C15.4 29.7 12 33.5 12 38C12 43.5 15.6 48 20 48Z" fill="url(#cloudGrad)" />
  
  <!-- WeatherGPT Sparkle -->
  <path d="M46 14L47.5 18L51.5 19.5L47.5 21L46 25L44.5 21L40.5 19.5L44.5 18Z" fill="#FFFFFF" />
  <circle cx="46" cy="19.5" r="1" fill="#38BDF8" />
</svg>
